# xmcd CD database file
#
# Track frame offsets:
#        150
#        17103
#        31475
#        43950
#        67298
#        86733
#        108133
#        133468
#        150400
#
# Disc length: 2254 seconds
#
# Revision: 0
# Processed by: cddbd v1.5.2PL0 Copyright (c) Steve Scherf et al.
# Submitted via: CUERipper 2.1.1
#
DISCID=7d08cc09
DTITLE=Sam Cooke - Live at the Harlem Square Club
DYEAR=1963
DGENRE=Soul
TTITLE0=Feel It
TTITLE1=Chain Gang
TTITLE2=Cupid
TTITLE3=Medley: It's All Right - For Sentimental Reasons
TTITLE4=Twistin' the Night Away
TTITLE5=Somebody Have Mercy
TTITLE6=Bring It on Home
TTITLE7=Nothing Can Change This Love
TTITLE8=Having a Party
EXTD=
EXTT0=
EXTT1=
EXTT2=
EXTT3=
EXTT4=
EXTT5=
EXTT6=
EXTT7=
EXTT8=
PLAYORDER=
